<svg xmlns="http://www.w3.org/2000/svg" version="1.1" xmlns:xlink="http://www.w3.org/1999/xlink" xmlns:svgjs="http://svgjs.dev/svgjs" width="2000" height="469" viewBox="0 0 2000 469"><g transform="matrix(1,0,0,1,-1.2121212121212466,-1.1584779415137234)"><svg viewBox="0 0 396 93" data-background-color="#ffffff" preserveAspectRatio="xMidYMid meet" height="469" width="2000" xmlns="http://www.w3.org/2000/svg" xmlns:xlink="http://www.w3.org/1999/xlink"><g id="tight-bounds" transform="matrix(1,0,0,1,0.2400000000000091,0.2434675226069487)"><svg viewBox="0 0 395.52 92.51306495478609" height="92.51306495478609" width="395.52"><g><svg viewBox="0 0 531.6865416032816 124.36274160328168" height="92.51306495478609" width="395.52"><g transform="matrix(1,0,0,1,136.16654160328167,1.378997819240837)"><svg viewBox="0 0 395.52 121.6047459648" height="121.6047459648" width="395.52"><g id="textblocktransform"><svg viewBox="0 0 395.52 121.6047459648" height="121.6047459648" width="395.52" id="textblock"><g><rect width="395.52" height="93.1914336" fill="none" stroke-width="9.018103199999999" stroke="#ffa96a" data-fill-palette-color="none" data-stroke-palette-color="tertiary"></rect><rect width="395.52" height="28.4133123648" y="93.1914336" fill="#ffa96a" data-fill-palette-color="tertiary"></rect></g><g><svg viewBox="0 0 395.52 93.1914336" height="93.1914336" width="395.52"><g transform="matrix(1,0,0,1,23.607599999999998,23.607599999999998)"><svg width="348.3048" viewBox="2.25 -34 262.47 34.65" height="45.9762336" data-palette-color="#ff9e58"><path d="M14.05 0.65L14.05 0.65Q10.5 0.65 7.83-0.95 5.15-2.55 3.7-5.5 2.25-8.45 2.25-12.5L2.25-12.5Q2.25-16.35 3.5-19.9 4.75-23.45 7.1-26.25 9.45-29.05 12.75-30.7 16.05-32.35 20.2-32.35L20.2-32.35Q23.3-32.35 25.3-31.4 27.3-30.45 27.3-28.6L27.3-28.6Q27.3-27.7 26.83-26.83 26.35-25.95 25.6-25.35 24.85-24.75 24.05-24.75L24.05-24.75Q23.55-24.75 23.25-25L23.25-25Q21.9-25.9 20.6-26.33 19.3-26.75 17.6-26.75L17.6-26.75Q14.05-26.75 11.6-25.13 9.15-23.5 7.88-20.85 6.6-18.2 6.6-15.1L6.6-15.1Q6.6-12.1 7.75-9.8 8.9-7.5 10.95-6.2 13-4.9 15.75-4.9L15.75-4.9Q17.95-4.9 20.03-5.78 22.1-6.65 23.7-8.2L23.7-8.2Q24.4-8.85 25.1-8.85L25.1-8.85Q25.7-8.85 25.95-8.35 26.2-7.85 26.2-7.35L26.2-7.35Q26.2-6.5 25.7-5.43 25.2-4.35 24.15-3.3L24.15-3.3Q22.3-1.45 19.6-0.4 16.9 0.65 14.05 0.65ZM37.2 0.65L37.2 0.65Q33.75 0.65 31.67-1.23 29.6-3.1 29.6-6.75L29.6-6.75Q29.6-8.45 30.07-10.05 30.55-11.65 31.35-13.05L31.35-13.05Q30.55-12.55 30.15-12.55L30.15-12.55Q29.55-12.55 29.32-13.23 29.1-13.9 29.1-14.55L29.1-14.55Q29.1-15.7 29.57-16.38 30.05-17.05 30.5-17.4L30.5-17.4Q31.55-18.3 33.8-19.38 36.05-20.45 39.2-20.45L39.2-20.45Q43.5-20.45 45.87-18.05 48.25-15.65 48.25-11.35L48.25-11.35Q48.25-8 46.85-5.28 45.45-2.55 42.97-0.95 40.5 0.65 37.2 0.65ZM38.75-4.45L38.75-4.45Q41.25-4.45 42.97-6.03 44.7-7.6 44.7-10.2L44.7-10.2Q44.7-12.9 42.95-14.05 41.2-15.2 38.9-15.2L38.9-15.2Q37.85-15.2 37-15 36.15-14.8 35.4-14.5L35.4-14.5Q34.7-13.5 34.15-12.25 33.6-11 33.6-9.5L33.6-9.5Q33.6-7 35.1-5.73 36.6-4.45 38.75-4.45ZM55.8 0.5L55.8 0.5Q54.35 0.5 53.65-0.3 52.95-1.1 52.95-3.1L52.95-3.1Q52.95-4.05 53.1-5.55 53.25-7.05 53.45-8.8L53.45-8.8Q53.75-10.95 53.97-13.3 54.2-15.65 54.2-17.8L54.2-17.8Q54.2-20.85 53.92-24.13 53.65-27.4 52.4-29.85L52.4-29.85Q51.95-30.85 51.95-31.3L51.95-31.3Q51.95-31.95 52.52-32.55 53.1-33.15 53.95-33.58 54.8-34 55.6-34L55.6-34Q56.9-34 57.55-32.83 58.2-31.65 58.4-29.63 58.6-27.6 58.6-25L58.6-25Q58.6-21.05 58.27-18.15 57.95-15.25 57.65-13.05L57.65-13.05Q57.45-11.6 57.27-10.3 57.1-9 57.1-7.95L57.1-7.95Q57.1-6.2 57.67-5.43 58.25-4.65 59.55-3.9L59.55-3.9Q59.9-3.7 60.07-3.53 60.25-3.35 60.25-3L60.25-3Q60.25-2.6 59.85-1.75 59.45-0.9 58.47-0.2 57.5 0.5 55.8 0.5ZM67.19 0.5L67.19 0.5Q65.74 0.5 65.04-0.3 64.34-1.1 64.34-3.1L64.34-3.1Q64.34-4.05 64.49-5.55 64.64-7.05 64.84-8.8L64.84-8.8Q65.14-10.95 65.37-13.3 65.59-15.65 65.59-17.8L65.59-17.8Q65.59-20.85 65.32-24.13 65.04-27.4 63.79-29.85L63.79-29.85Q63.34-30.85 63.34-31.3L63.34-31.3Q63.34-31.95 63.92-32.55 64.49-33.15 65.34-33.58 66.19-34 66.99-34L66.99-34Q68.29-34 68.94-32.83 69.59-31.65 69.79-29.63 69.99-27.6 69.99-25L69.99-25Q69.99-21.05 69.67-18.15 69.34-15.25 69.04-13.05L69.04-13.05Q68.84-11.6 68.67-10.3 68.49-9 68.49-7.95L68.49-7.95Q68.49-6.2 69.07-5.43 69.64-4.65 70.94-3.9L70.94-3.9Q71.29-3.7 71.47-3.53 71.64-3.35 71.64-3L71.64-3Q71.64-2.6 71.24-1.75 70.84-0.9 69.87-0.2 68.89 0.5 67.19 0.5ZM81.09 0.65L81.09 0.65Q78.09 0.65 76.27-1.23 74.44-3.1 74.44-6.6L74.44-6.6Q74.44-9.1 75.42-11.58 76.39-14.05 78.24-16.05 80.09-18.05 82.69-19.25 85.29-20.45 88.54-20.45L88.54-20.45Q91.54-20.45 93.67-19.43 95.79-18.4 95.79-16.65L95.79-16.65Q95.79-16.2 95.69-15.48 95.59-14.75 95.44-14.3L95.44-14.3Q95.29-13.9 95.02-13.58 94.74-13.25 94.29-13.25L94.29-13.25Q94.09-13.25 93.54-13.4L93.54-13.4Q93.34-12.35 93.24-11.35 93.14-10.35 93.14-9.35L93.14-9.35Q93.14-7.45 93.72-5.98 94.29-4.5 95.99-4.15L95.99-4.15Q96.44-4.05 96.72-3.85 96.99-3.65 96.99-3L96.99-3Q96.99-2.45 96.72-1.6 96.44-0.75 95.67-0.08 94.89 0.6 93.44 0.6L93.44 0.6Q91.49 0.6 90.44-0.83 89.39-2.25 89.39-4.9L89.39-4.9Q88.04-2.45 85.97-0.9 83.89 0.65 81.09 0.65ZM82.69-4.55L82.69-4.55Q84.69-4.55 86.22-5.8 87.74-7.05 88.59-8.95L88.59-8.95Q89.14-10.15 89.44-11.58 89.74-13 89.84-14.4L89.84-14.4Q88.99-14.8 87.89-15.05 86.79-15.3 85.59-15.3L85.59-15.3Q82.54-15.3 80.57-13.5 78.59-11.7 78.59-9L78.59-9Q78.59-7 79.69-5.78 80.79-4.55 82.69-4.55ZM110.19 0.65L110.19 0.65Q108.34 0.65 107.01 0 105.69-0.65 104.69-1.65L104.69-1.65Q104.19-0.8 103.51-0.13 102.84 0.55 101.99 0.55L101.99 0.55Q101.44 0.55 100.94 0.23 100.44-0.1 100.54-0.65L100.54-0.65Q101.29-4.65 101.81-8.75 102.34-12.85 102.34-17.1L102.34-17.1Q102.34-20.65 102.09-23.75 101.84-26.85 100.54-29.45L100.54-29.45Q100.29-29.95 100.11-30.4 99.94-30.85 99.94-31.25L99.94-31.25Q99.94-32.2 101.04-33.1 102.14-34 103.39-34L103.39-34Q105.19-34 105.84-31.8 106.49-29.6 106.49-25.3L106.49-25.3Q106.49-21.65 106.16-18.63 105.84-15.6 105.44-13.45L105.44-13.45Q106.84-16.4 109.26-18.43 111.69-20.45 114.74-20.45L114.74-20.45Q117.79-20.45 119.51-18.43 121.24-16.4 121.24-12.95L121.24-12.95Q121.24-10.4 120.44-7.98 119.64-5.55 118.19-3.6 116.74-1.65 114.71-0.5 112.69 0.65 110.19 0.65ZM111.34-4.75L111.34-4.75Q114.19-4.75 115.74-6.55 117.29-8.35 117.29-10.7L117.29-10.7Q117.29-12.75 116.16-13.88 115.04-15 113.19-15L113.19-15Q111.34-15 109.89-13.88 108.44-12.75 107.44-10.93 106.44-9.1 105.89-7L105.89-7Q107.04-5.9 108.46-5.33 109.89-4.75 111.34-4.75ZM132.99 0.65L132.99 0.65Q129.54 0.65 127.46-1.23 125.39-3.1 125.39-6.75L125.39-6.75Q125.39-8.45 125.86-10.05 126.34-11.65 127.14-13.05L127.14-13.05Q126.34-12.55 125.94-12.55L125.94-12.55Q125.34-12.55 125.11-13.23 124.89-13.9 124.89-14.55L124.89-14.55Q124.89-15.7 125.36-16.38 125.84-17.05 126.29-17.4L126.29-17.4Q127.34-18.3 129.59-19.38 131.84-20.45 134.99-20.45L134.99-20.45Q139.29-20.45 141.66-18.05 144.04-15.65 144.04-11.35L144.04-11.35Q144.04-8 142.64-5.28 141.24-2.55 138.76-0.95 136.29 0.65 132.99 0.65ZM134.54-4.45L134.54-4.45Q137.04-4.45 138.76-6.03 140.49-7.6 140.49-10.2L140.49-10.2Q140.49-12.9 138.74-14.05 136.99-15.2 134.69-15.2L134.69-15.2Q133.64-15.2 132.79-15 131.94-14.8 131.19-14.5L131.19-14.5Q130.49-13.5 129.94-12.25 129.39-11 129.39-9.5L129.39-9.5Q129.39-7 130.89-5.73 132.39-4.45 134.54-4.45ZM150.88 0.55L150.88 0.55Q150.08 0.55 149.61 0.28 149.13 0 149.28-0.65L149.28-0.65Q149.83-2.8 150.21-5.03 150.58-7.25 150.58-9.3L150.58-9.3Q150.58-11.95 150.26-13.18 149.93-14.4 149.38-14.88 148.83-15.35 148.03-15.6L148.03-15.6Q147.68-15.75 147.41-16 147.13-16.25 147.13-16.7L147.13-16.7Q147.13-17.4 147.68-18.25 148.23-19.1 149.23-19.73 150.23-20.35 151.53-20.35L151.53-20.35Q153.23-20.35 153.91-19.18 154.58-18 154.58-16.1L154.58-16.1Q155.48-18.1 156.81-19.28 158.13-20.45 160.13-20.45L160.13-20.45Q161.48-20.45 162.38-19.85 163.28-19.25 163.28-17.9L163.28-17.9Q163.28-16.55 162.41-15.38 161.53-14.2 160.63-14.2L160.63-14.2Q160.48-14.2 160.28-14.25 160.08-14.3 159.93-14.5L159.93-14.5Q159.28-15.3 158.33-15.3L158.33-15.3Q156.88-15.3 155.78-13.4 154.68-11.5 154.58-8.15L154.58-8.15Q154.63-6.9 154.66-5.6 154.68-4.3 154.68-3.7L154.68-3.7Q154.68-1.85 153.66-0.65 152.63 0.55 150.88 0.55ZM170.18 0.65L170.18 0.65Q167.18 0.65 165.36-1.23 163.53-3.1 163.53-6.6L163.53-6.6Q163.53-9.1 164.51-11.58 165.48-14.05 167.33-16.05 169.18-18.05 171.78-19.25 174.38-20.45 177.63-20.45L177.63-20.45Q180.63-20.45 182.76-19.43 184.88-18.4 184.88-16.65L184.88-16.65Q184.88-16.2 184.78-15.48 184.68-14.75 184.53-14.3L184.53-14.3Q184.38-13.9 184.11-13.58 183.83-13.25 183.38-13.25L183.38-13.25Q183.18-13.25 182.63-13.4L182.63-13.4Q182.43-12.35 182.33-11.35 182.23-10.35 182.23-9.35L182.23-9.35Q182.23-7.45 182.81-5.98 183.38-4.5 185.08-4.15L185.08-4.15Q185.53-4.05 185.81-3.85 186.08-3.65 186.08-3L186.08-3Q186.08-2.45 185.81-1.6 185.53-0.75 184.76-0.08 183.98 0.6 182.53 0.6L182.53 0.6Q180.58 0.6 179.53-0.83 178.48-2.25 178.48-4.9L178.48-4.9Q177.13-2.45 175.06-0.9 172.98 0.65 170.18 0.65ZM171.78-4.55L171.78-4.55Q173.78-4.55 175.31-5.8 176.83-7.05 177.68-8.95L177.68-8.95Q178.23-10.15 178.53-11.58 178.83-13 178.93-14.4L178.93-14.4Q178.08-14.8 176.98-15.05 175.88-15.3 174.68-15.3L174.68-15.3Q171.63-15.3 169.66-13.5 167.68-11.7 167.68-9L167.68-9Q167.68-7 168.78-5.78 169.88-4.55 171.78-4.55ZM196.48 0.65L196.48 0.65Q193.43 0.65 192.1-1.38 190.78-3.4 190.78-6.6L190.78-6.6Q190.78-7.75 190.9-8.85 191.03-9.95 191.18-11.05L191.18-11.05Q191.33-12.15 191.48-13.2 191.63-14.25 191.73-15.2L191.73-15.2Q190.68-14.9 189.63-14.9L189.63-14.9Q188.53-14.9 188.53-15.8L188.53-15.8Q188.53-16.75 189.38-18.13 190.23-19.5 191.5-20.85 192.78-22.2 194.05-23.13 195.33-24.05 196.23-24.05L196.23-24.05Q197.33-24.05 197.33-22.15L197.33-22.15Q197.33-21.65 197.25-21.13 197.18-20.6 197.08-20.05L197.08-20.05Q198.03-20.25 199-20.4 199.98-20.55 200.88-20.55L200.88-20.55Q202.03-20.55 202.65-20.15 203.28-19.75 203.28-18.6L203.28-18.6Q203.28-17.4 202.7-16.2 202.13-15 201.43-15L201.43-15Q201.28-15 200.93-15.05 200.58-15.1 200.08-15.2L200.08-15.2Q199.43-15.35 198.43-15.5 197.43-15.65 196.03-15.65L196.03-15.65Q195.68-14.1 195.4-12.48 195.13-10.85 195.13-9.55L195.13-9.55Q195.13-6.65 196.58-5.6 198.03-4.55 200.78-4.55L200.78-4.55Q201.63-4.55 201.98-4.28 202.33-4 202.33-3.3L202.33-3.3Q202.33-1.65 200.63-0.5 198.93 0.65 196.48 0.65ZM210.13-24.85L210.13-24.85Q208.73-24.9 207.88-25.7 207.03-26.5 207.03-27.95L207.03-27.95Q207.08-29.5 208.08-30.48 209.08-31.45 210.63-31.4L210.63-31.4Q212.08-31.35 212.9-30.55 213.73-29.75 213.68-28.3L213.68-28.3Q213.63-26.8 212.68-25.83 211.73-24.85 210.13-24.85ZM210.18 0.5L210.18 0.5Q208.68 0.5 207.83-0.33 206.98-1.15 206.98-3.15L206.98-3.15Q206.98-4.3 207.2-5.4 207.43-6.5 207.73-7.55L207.73-7.55Q208.08-8.65 208.3-9.8 208.53-10.95 208.53-12.25L208.53-12.25Q208.53-13.15 208.28-13.98 208.03-14.8 207.18-15.2L207.18-15.2Q206.53-15.55 206.05-15.93 205.58-16.3 205.58-16.9L205.58-16.9Q205.58-17.6 206.23-18.4 206.88-19.2 207.95-19.78 209.03-20.35 210.18-20.35L210.18-20.35Q211.43-20.35 212-19.7 212.58-19.05 212.78-18.05 212.98-17.05 212.98-16L212.98-16Q212.98-14.4 212.73-12.88 212.48-11.35 212.23-10.05L212.23-10.05Q212.03-9.1 211.93-8.3 211.83-7.5 211.83-6.8L211.83-6.8Q211.83-5.55 212.43-4.93 213.03-4.3 214.13-3.75L214.13-3.75Q214.58-3.5 214.58-3L214.58-3Q214.58-2.6 214.18-1.75 213.78-0.9 212.8-0.2 211.83 0.5 210.18 0.5ZM226.22 0.65L226.22 0.65Q222.77 0.65 220.7-1.23 218.62-3.1 218.62-6.75L218.62-6.75Q218.62-8.45 219.1-10.05 219.57-11.65 220.37-13.05L220.37-13.05Q219.57-12.55 219.17-12.55L219.17-12.55Q218.57-12.55 218.35-13.23 218.12-13.9 218.12-14.55L218.12-14.55Q218.12-15.7 218.6-16.38 219.07-17.05 219.52-17.4L219.52-17.4Q220.57-18.3 222.82-19.38 225.07-20.45 228.22-20.45L228.22-20.45Q232.52-20.45 234.9-18.05 237.27-15.65 237.27-11.35L237.27-11.35Q237.27-8 235.87-5.28 234.47-2.55 232-0.95 229.52 0.65 226.22 0.65ZM227.77-4.45L227.77-4.45Q230.27-4.45 232-6.03 233.72-7.6 233.72-10.2L233.72-10.2Q233.72-12.9 231.97-14.05 230.22-15.2 227.92-15.2L227.92-15.2Q226.87-15.2 226.02-15 225.17-14.8 224.42-14.5L224.42-14.5Q223.72-13.5 223.17-12.25 222.62-11 222.62-9.5L222.62-9.5Q222.62-7 224.12-5.73 225.62-4.45 227.77-4.45ZM243.92 0.55L243.92 0.55Q242.12 0.55 242.32-0.65L242.32-0.65Q242.87-2.8 243.25-5.03 243.62-7.25 243.62-9.3L243.62-9.3Q243.62-11.95 243.3-13.18 242.97-14.4 242.42-14.88 241.87-15.35 241.07-15.6L241.07-15.6Q240.72-15.75 240.45-16 240.17-16.25 240.17-16.7L240.17-16.7Q240.17-17.4 240.72-18.25 241.27-19.1 242.3-19.73 243.32-20.35 244.62-20.35L244.62-20.35Q246.32-20.35 246.97-19.18 247.62-18 247.62-16.1L247.62-16.1Q247.62-14.85 247.37-13.3 247.12-11.75 246.87-10.5L246.87-10.5 247.02-10.45Q248.02-13.1 249.45-15.38 250.87-17.65 252.77-19.05 254.67-20.45 257.17-20.45L257.17-20.45Q259.82-20.45 261.22-18.85 262.62-17.25 262.62-14.85L262.62-14.85Q262.62-13.85 262.4-12.95 262.17-12.05 261.92-11.2L261.92-11.2Q261.67-10.4 261.5-9.55 261.32-8.7 261.32-7.85L261.32-7.85Q261.32-5 264.02-4L264.02-4Q264.72-3.7 264.72-3.1L264.72-3.1Q264.72-2.65 264.42-1.8 264.12-0.95 263.32-0.23 262.52 0.5 260.97 0.5L260.97 0.5Q258.97 0.5 257.87-0.93 256.77-2.35 256.77-4.55L256.77-4.55Q256.77-5.8 257.05-7.08 257.32-8.35 257.62-9.45L257.62-9.45Q257.82-10.3 258-11.13 258.17-11.95 258.17-12.6L258.17-12.6Q258.17-14.9 255.77-14.9L255.77-14.9Q253.72-14.9 252.17-13.38 250.62-11.85 249.52-9.55 248.42-7.25 247.72-4.9L247.72-4.9 247.72-3.7Q247.72-1.85 246.7-0.65 245.67 0.55 243.92 0.55Z" opacity="1" transform="matrix(1,0,0,1,0,0)" fill="#ff9e58" class="wordmark-text-0" data-fill-palette-color="primary" id="text-0"></path></svg></g></svg></g></svg></g></svg></g><g><svg viewBox="0 0 124.36274160328168 124.36274160328168" height="124.36274160328168" width="124.36274160328168"><g><svg xmlns="http://www.w3.org/2000/svg" xmlns:xlink="http://www.w3.org/1999/xlink" version="1.1" x="0" y="0" viewBox="2.5 26.5 20 20" enable-background="new 0.5 24.5 24 24" xml:space="preserve" height="124.36274160328168" width="124.36274160328168" class="icon-icon-0" data-fill-palette-color="accent" id="icon-0"><g fill="#e65728" data-fill-palette-color="accent"><circle cx="18.5" cy="39.5" r="2.0" fill="#e65728" data-fill-palette-color="accent"></circle><circle cx="6.5" cy="28.5" r="2.0" fill="#e65728" data-fill-palette-color="accent"></circle><path d="M10.5 42.5h-4v-4c0-0.553-0.448-1-1-1s-1 0.447-1 1v5c0 0.553 0.448 1 1 1h5v2l3-3-3-3V42.5z" fill="#e65728" data-fill-palette-color="accent"></path><path d="M18.5 34.5c0 0.553 0.447 1 1 1s1-0.447 1-1v-5c0-0.553-0.447-1-1-1h-6v-2l-3 3 3 3v-2h5V34.5z" fill="#e65728" data-fill-palette-color="accent"></path><path d="M10.5 33.5c0-1.104-0.896-2-2-2h-4c-1.104 0-2 0.896-2 2v2h8V33.5z" fill="#e65728" data-fill-palette-color="accent"></path><path d="M20.5 42.5h-4c-1.104 0-2 0.896-2 2v2h8v-2C22.5 43.396 21.604 42.5 20.5 42.5z" fill="#e65728" data-fill-palette-color="accent"></path></g></svg></g></svg></g></svg></g><defs></defs></svg><rect width="395.52" height="92.51306495478609" fill="none" stroke="none" visibility="hidden"></rect></g></svg></g></svg>